<svg id="visual" viewBox="0 0 960 300" width="960" height="300" xmlns="http://www.w3.org/2000/svg" xmlns:xlink="http://www.w3.org/1999/xlink" version="1.1"><rect x="0" y="0" width="960" height="300" fill="#f1f3f5"></rect><path d="M0 118L22.8 115.2C45.7 112.3 91.3 106.7 137 108.5C182.7 110.3 228.3 119.7 274 123.2C319.7 126.7 365.3 124.3 411.2 123.5C457 122.7 503 123.3 548.8 118.5C594.7 113.7 640.3 103.3 686 106.5C731.7 109.7 777.3 126.3 823 127C868.7 127.7 914.3 112.3 937.2 104.7L960 97L960 0L937.2 0C914.3 0 868.7 0 823 0C777.3 0 731.7 0 686 0C640.3 0 594.7 0 548.8 0C503 0 457 0 411.2 0C365.3 0 319.7 0 274 0C228.3 0 182.7 0 137 0C91.3 0 45.7 0 22.8 0L0 0Z" fill="#f1f3f5"></path><path d="M0 77L22.8 80.8C45.7 84.7 91.3 92.3 137 98.5C182.7 104.7 228.3 109.3 274 110.3C319.7 111.3 365.3 108.7 411.2 102.5C457 96.3 503 86.7 548.8 81.5C594.7 76.3 640.3 75.7 686 75.3C731.7 75 777.3 75 823 75.8C868.7 76.7 914.3 78.3 937.2 79.2L960 80L960 0L937.2 0C914.3 0 868.7 0 823 0C777.3 0 731.7 0 686 0C640.3 0 594.7 0 548.8 0C503 0 457 0 411.2 0C365.3 0 319.7 0 274 0C228.3 0 182.7 0 137 0C91.3 0 45.7 0 22.8 0L0 0Z" fill="#b7babd"></path><path d="M0 70L22.8 71.8C45.7 73.7 91.3 77.3 137 79.2C182.7 81 228.3 81 274 77.8C319.7 74.7 365.3 68.3 411.2 65.3C457 62.3 503 62.7 548.8 65.5C594.7 68.3 640.3 73.7 686 78.2C731.7 82.7 777.3 86.3 823 81.8C868.7 77.3 914.3 64.7 937.2 58.3L960 52L960 0L937.2 0C914.3 0 868.7 0 823 0C777.3 0 731.7 0 686 0C640.3 0 594.7 0 548.8 0C503 0 457 0 411.2 0C365.3 0 319.7 0 274 0C228.3 0 182.7 0 137 0C91.3 0 45.7 0 22.8 0L0 0Z" fill="#818488"></path><path d="M0 52L22.8 49.8C45.7 47.7 91.3 43.3 137 46.2C182.7 49 228.3 59 274 61.3C319.7 63.7 365.3 58.3 411.2 54.7C457 51 503 49 548.8 50.5C594.7 52 640.3 57 686 60.5C731.7 64 777.3 66 823 61.3C868.7 56.7 914.3 45.3 937.2 39.7L960 34L960 0L937.2 0C914.3 0 868.7 0 823 0C777.3 0 731.7 0 686 0C640.3 0 594.7 0 548.8 0C503 0 457 0 411.2 0C365.3 0 319.7 0 274 0C228.3 0 182.7 0 137 0C91.3 0 45.7 0 22.8 0L0 0Z" fill="#4f5256"></path><path d="M0 23L22.8 24C45.7 25 91.3 27 137 27.5C182.7 28 228.3 27 274 28.7C319.7 30.3 365.3 34.7 411.2 36.8C457 39 503 39 548.8 36.8C594.7 34.7 640.3 30.3 686 30.3C731.7 30.3 777.3 34.7 823 36.3C868.7 38 914.3 37 937.2 36.5L960 36L960 0L937.2 0C914.3 0 868.7 0 823 0C777.3 0 731.7 0 686 0C640.3 0 594.7 0 548.8 0C503 0 457 0 411.2 0C365.3 0 319.7 0 274 0C228.3 0 182.7 0 137 0C91.3 0 45.7 0 22.8 0L0 0Z" fill="#212529"></path></svg>