<svg id="visual" viewBox="0 0 900 300" width="900" height="300" xmlns="http://www.w3.org/2000/svg" xmlns:xlink="http://www.w3.org/1999/xlink" version="1.1"><rect x="0" y="0" width="900" height="300" fill="#f1f3f5"></rect><path d="M0 184L21.5 182.3C43 180.7 86 177.3 128.8 170.8C171.7 164.3 214.3 154.7 257.2 150.5C300 146.3 343 147.7 385.8 151.3C428.7 155 471.3 161 514.2 157.7C557 154.3 600 141.7 642.8 140.2C685.7 138.7 728.3 148.3 771.2 150.3C814 152.3 857 146.7 878.5 143.8L900 141L900 0L878.5 0C857 0 814 0 771.2 0C728.3 0 685.7 0 642.8 0C600 0 557 0 514.2 0C471.3 0 428.7 0 385.8 0C343 0 300 0 257.2 0C214.3 0 171.7 0 128.8 0C86 0 43 0 21.5 0L0 0Z" fill="#f1f3f5"></path><path d="M0 114L21.5 114.2C43 114.3 86 114.7 128.8 116.7C171.7 118.7 214.3 122.3 257.2 127C300 131.7 343 137.3 385.8 135.3C428.7 133.3 471.3 123.7 514.2 119.2C557 114.7 600 115.3 642.8 119.5C685.7 123.7 728.3 131.3 771.2 139.2C814 147 857 155 878.5 159L900 163L900 0L878.5 0C857 0 814 0 771.2 0C728.3 0 685.7 0 642.8 0C600 0 557 0 514.2 0C471.3 0 428.7 0 385.8 0C343 0 300 0 257.2 0C214.3 0 171.7 0 128.8 0C86 0 43 0 21.5 0L0 0Z" fill="#d0d2d5"></path><path d="M0 128L21.5 127.8C43 127.7 86 127.3 128.8 129.8C171.7 132.3 214.3 137.7 257.2 133.5C300 129.3 343 115.7 385.8 115.2C428.7 114.7 471.3 127.3 514.2 127.7C557 128 600 116 642.8 115.7C685.7 115.3 728.3 126.7 771.2 125.8C814 125 857 112 878.5 105.5L900 99L900 0L878.5 0C857 0 814 0 771.2 0C728.3 0 685.7 0 642.8 0C600 0 557 0 514.2 0C471.3 0 428.7 0 385.8 0C343 0 300 0 257.2 0C214.3 0 171.7 0 128.8 0C86 0 43 0 21.5 0L0 0Z" fill="#afb2b5"></path><path d="M0 100L21.5 98.7C43 97.3 86 94.7 128.8 95C171.7 95.3 214.3 98.7 257.2 103.2C300 107.7 343 113.3 385.8 110C428.7 106.7 471.3 94.3 514.2 91.2C557 88 600 94 642.8 97.8C685.7 101.7 728.3 103.3 771.2 106.5C814 109.7 857 114.3 878.5 116.7L900 119L900 0L878.5 0C857 0 814 0 771.2 0C728.3 0 685.7 0 642.8 0C600 0 557 0 514.2 0C471.3 0 428.7 0 385.8 0C343 0 300 0 257.2 0C214.3 0 171.7 0 128.8 0C86 0 43 0 21.5 0L0 0Z" fill="#909397"></path><path d="M0 81L21.5 82.3C43 83.7 86 86.3 128.8 84.3C171.7 82.3 214.3 75.7 257.2 71.5C300 67.3 343 65.7 385.8 66.7C428.7 67.7 471.3 71.3 514.2 78.8C557 86.3 600 97.7 642.8 100.7C685.7 103.7 728.3 98.3 771.2 91.7C814 85 857 77 878.5 73L900 69L900 0L878.5 0C857 0 814 0 771.2 0C728.3 0 685.7 0 642.8 0C600 0 557 0 514.2 0C471.3 0 428.7 0 385.8 0C343 0 300 0 257.2 0C214.3 0 171.7 0 128.8 0C86 0 43 0 21.5 0L0 0Z" fill="#727579"></path><path d="M0 52L21.5 54.3C43 56.7 86 61.3 128.8 60.5C171.7 59.7 214.3 53.3 257.2 50.8C300 48.3 343 49.7 385.8 53C428.7 56.3 471.3 61.7 514.2 61.2C557 60.7 600 54.3 642.8 57C685.7 59.7 728.3 71.3 771.2 72.8C814 74.3 857 65.7 878.5 61.3L900 57L900 0L878.5 0C857 0 814 0 771.2 0C728.3 0 685.7 0 642.8 0C600 0 557 0 514.2 0C471.3 0 428.7 0 385.8 0C343 0 300 0 257.2 0C214.3 0 171.7 0 128.8 0C86 0 43 0 21.5 0L0 0Z" fill="#55595d"></path><path d="M0 53L21.5 52C43 51 86 49 128.8 46.7C171.7 44.3 214.3 41.7 257.2 38.7C300 35.7 343 32.3 385.8 34.3C428.7 36.3 471.3 43.7 514.2 46C557 48.3 600 45.7 642.8 47C685.7 48.3 728.3 53.7 771.2 53.2C814 52.7 857 46.3 878.5 43.2L900 40L900 0L878.5 0C857 0 814 0 771.2 0C728.3 0 685.7 0 642.8 0C600 0 557 0 514.2 0C471.3 0 428.7 0 385.8 0C343 0 300 0 257.2 0C214.3 0 171.7 0 128.8 0C86 0 43 0 21.5 0L0 0Z" fill="#3a3e42"></path><path d="M0 25L21.5 24.5C43 24 86 23 128.8 25.3C171.7 27.7 214.3 33.3 257.2 36C300 38.7 343 38.3 385.8 37.7C428.7 37 471.3 36 514.2 32.5C557 29 600 23 642.8 22.7C685.7 22.3 728.3 27.7 771.2 27.2C814 26.7 857 20.3 878.5 17.2L900 14L900 0L878.5 0C857 0 814 0 771.2 0C728.3 0 685.7 0 642.8 0C600 0 557 0 514.2 0C471.3 0 428.7 0 385.8 0C343 0 300 0 257.2 0C214.3 0 171.7 0 128.8 0C86 0 43 0 21.5 0L0 0Z" fill="#212529"></path></svg>