<svg id="visual" viewBox="0 0 960 560" width="960" height="560" xmlns="http://www.w3.org/2000/svg" xmlns:xlink="http://www.w3.org/1999/xlink" version="1.1"><rect x="0" y="0" width="960" height="560" fill="#e03131"></rect><defs><linearGradient id="grad1_0" x1="41.7%" y1="0%" x2="100%" y2="100%"><stop offset="15.714285714285717%" stop-color="#e03131" stop-opacity="1"></stop><stop offset="84.28571428571428%" stop-color="#e03131" stop-opacity="1"></stop></linearGradient></defs><defs><linearGradient id="grad2_0" x1="0%" y1="0%" x2="58.3%" y2="100%"><stop offset="15.714285714285717%" stop-color="#e03131" stop-opacity="1"></stop><stop offset="84.28571428571428%" stop-color="#e03131" stop-opacity="1"></stop></linearGradient></defs><g transform="translate(960, 0)"><path d="M0 416.8C-45 382.6 -89.9 348.5 -135.5 327.1C-181 305.6 -227.2 296.8 -272.2 272.2C-317.3 247.7 -361.1 207.5 -385 159.5C-408.9 111.5 -412.9 55.8 -416.8 0L0 0Z" fill="#ffa94d"></path></g><g transform="translate(0, 560)"><path d="M0 -416.8C49.4 -401.9 98.9 -387 153.5 -370.5C208 -353.9 267.7 -335.7 294.7 -294.7C321.7 -253.7 315.9 -189.9 330.7 -137C345.6 -84.1 381.2 -42 416.8 0L0 0Z" fill="#ffa94d"></path></g></svg>