<svg id="visual" viewBox="0 0 960 250" width="960" height="250" xmlns="http://www.w3.org/2000/svg" xmlns:xlink="http://www.w3.org/1999/xlink" version="1.1"><rect x="0" y="0" width="960" height="250" fill="#212529"></rect><path d="M0 205L13.3 200C26.7 195 53.3 185 80 186C106.7 187 133.3 199 160 206.2C186.7 213.3 213.3 215.7 240 216.5C266.7 217.3 293.3 216.7 320 216.5C346.7 216.3 373.3 216.7 400 216.8C426.7 217 453.3 217 480 213.7C506.7 210.3 533.3 203.7 560 199.2C586.7 194.7 613.3 192.3 640 193.5C666.7 194.7 693.3 199.3 720 201.3C746.7 203.3 773.3 202.7 800 204C826.7 205.3 853.3 208.7 880 204.8C906.7 201 933.3 190 946.7 184.5L960 179L960 251L946.7 251C933.3 251 906.7 251 880 251C853.3 251 826.7 251 800 251C773.3 251 746.7 251 720 251C693.3 251 666.7 251 640 251C613.3 251 586.7 251 560 251C533.3 251 506.7 251 480 251C453.3 251 426.7 251 400 251C373.3 251 346.7 251 320 251C293.3 251 266.7 251 240 251C213.3 251 186.7 251 160 251C133.3 251 106.7 251 80 251C53.3 251 26.7 251 13.3 251L0 251Z" fill="#e8590c"></path><path d="M0 195L13.3 195C26.7 195 53.3 195 80 201C106.7 207 133.3 219 160 222.2C186.7 225.3 213.3 219.7 240 214C266.7 208.3 293.3 202.7 320 204.5C346.7 206.3 373.3 215.7 400 215.5C426.7 215.3 453.3 205.7 480 202.3C506.7 199 533.3 202 560 202.5C586.7 203 613.3 201 640 201.3C666.7 201.7 693.3 204.3 720 207.7C746.7 211 773.3 215 800 218.8C826.7 222.7 853.3 226.3 880 223.3C906.7 220.3 933.3 210.7 946.7 205.8L960 201L960 251L946.7 251C933.3 251 906.7 251 880 251C853.3 251 826.7 251 800 251C773.3 251 746.7 251 720 251C693.3 251 666.7 251 640 251C613.3 251 586.7 251 560 251C533.3 251 506.7 251 480 251C453.3 251 426.7 251 400 251C373.3 251 346.7 251 320 251C293.3 251 266.7 251 240 251C213.3 251 186.7 251 160 251C133.3 251 106.7 251 80 251C53.3 251 26.7 251 13.3 251L0 251Z" fill="#e64c1c"></path><path d="M0 220L13.3 219.5C26.7 219 53.3 218 80 217.7C106.7 217.3 133.3 217.7 160 221.7C186.7 225.7 213.3 233.3 240 231.5C266.7 229.7 293.3 218.3 320 213.7C346.7 209 373.3 211 400 216.3C426.7 221.7 453.3 230.3 480 232.5C506.7 234.7 533.3 230.3 560 227.5C586.7 224.7 613.3 223.3 640 225.5C666.7 227.7 693.3 233.3 720 232.8C746.7 232.3 773.3 225.7 800 225.5C826.7 225.3 853.3 231.7 880 229.8C906.7 228 933.3 218 946.7 213L960 208L960 251L946.7 251C933.3 251 906.7 251 880 251C853.3 251 826.7 251 800 251C773.3 251 746.7 251 720 251C693.3 251 666.7 251 640 251C613.3 251 586.7 251 560 251C533.3 251 506.7 251 480 251C453.3 251 426.7 251 400 251C373.3 251 346.7 251 320 251C293.3 251 266.7 251 240 251C213.3 251 186.7 251 160 251C133.3 251 106.7 251 80 251C53.3 251 26.7 251 13.3 251L0 251Z" fill="#e43f27"></path><path d="M0 234L13.3 236.2C26.7 238.3 53.3 242.7 80 240.7C106.7 238.7 133.3 230.3 160 225.7C186.7 221 213.3 220 240 224.5C266.7 229 293.3 239 320 239.2C346.7 239.3 373.3 229.7 400 228.2C426.7 226.7 453.3 233.3 480 237.2C506.7 241 533.3 242 560 242.7C586.7 243.3 613.3 243.7 640 240.2C666.7 236.7 693.3 229.3 720 225.7C746.7 222 773.3 222 800 224.2C826.7 226.3 853.3 230.7 880 231.8C906.7 233 933.3 231 946.7 230L960 229L960 251L946.7 251C933.3 251 906.7 251 880 251C853.3 251 826.7 251 800 251C773.3 251 746.7 251 720 251C693.3 251 666.7 251 640 251C613.3 251 586.7 251 560 251C533.3 251 506.7 251 480 251C453.3 251 426.7 251 400 251C373.3 251 346.7 251 320 251C293.3 251 266.7 251 240 251C213.3 251 186.7 251 160 251C133.3 251 106.7 251 80 251C53.3 251 26.7 251 13.3 251L0 251Z" fill="#e03131"></path></svg>