<svg id="visual" viewBox="0 0 960 300" width="960" height="300" xmlns="http://www.w3.org/2000/svg" xmlns:xlink="http://www.w3.org/1999/xlink" version="1.1"><rect x="0" y="0" width="960" height="300" fill="#f1f3f5"></rect><path d="M0 201L22.8 196.8C45.7 192.7 91.3 184.3 137 186.3C182.7 188.3 228.3 200.7 274 202.5C319.7 204.3 365.3 195.7 411.2 195.8C457 196 503 205 548.8 206C594.7 207 640.3 200 686 200.7C731.7 201.3 777.3 209.7 823 212.8C868.7 216 914.3 214 937.2 213L960 212L960 301L937.2 301C914.3 301 868.7 301 823 301C777.3 301 731.7 301 686 301C640.3 301 594.7 301 548.8 301C503 301 457 301 411.2 301C365.3 301 319.7 301 274 301C228.3 301 182.7 301 137 301C91.3 301 45.7 301 22.8 301L0 301Z" fill="#f1f3f5"></path><path d="M0 221L22.8 221.7C45.7 222.3 91.3 223.7 137 220.8C182.7 218 228.3 211 274 209C319.7 207 365.3 210 411.2 214.5C457 219 503 225 548.8 222.2C594.7 219.3 640.3 207.7 686 205.3C731.7 203 777.3 210 823 211.2C868.7 212.3 914.3 207.7 937.2 205.3L960 203L960 301L937.2 301C914.3 301 868.7 301 823 301C777.3 301 731.7 301 686 301C640.3 301 594.7 301 548.8 301C503 301 457 301 411.2 301C365.3 301 319.7 301 274 301C228.3 301 182.7 301 137 301C91.3 301 45.7 301 22.8 301L0 301Z" fill="#b7babd"></path><path d="M0 250L22.8 245C45.7 240 91.3 230 137 228.8C182.7 227.7 228.3 235.3 274 237.3C319.7 239.3 365.3 235.7 411.2 236.8C457 238 503 244 548.8 245.3C594.7 246.7 640.3 243.3 686 239.7C731.7 236 777.3 232 823 234.5C868.7 237 914.3 246 937.2 250.5L960 255L960 301L937.2 301C914.3 301 868.7 301 823 301C777.3 301 731.7 301 686 301C640.3 301 594.7 301 548.8 301C503 301 457 301 411.2 301C365.3 301 319.7 301 274 301C228.3 301 182.7 301 137 301C91.3 301 45.7 301 22.8 301L0 301Z" fill="#818488"></path><path d="M0 251L22.8 250C45.7 249 91.3 247 137 248.7C182.7 250.3 228.3 255.7 274 257.8C319.7 260 365.3 259 411.2 255.7C457 252.3 503 246.7 548.8 245.7C594.7 244.7 640.3 248.3 686 249.8C731.7 251.3 777.3 250.7 823 249C868.7 247.3 914.3 244.7 937.2 243.3L960 242L960 301L937.2 301C914.3 301 868.7 301 823 301C777.3 301 731.7 301 686 301C640.3 301 594.7 301 548.8 301C503 301 457 301 411.2 301C365.3 301 319.7 301 274 301C228.3 301 182.7 301 137 301C91.3 301 45.7 301 22.8 301L0 301Z" fill="#4f5256"></path><path d="M0 278L22.8 279.2C45.7 280.3 91.3 282.7 137 280.2C182.7 277.7 228.3 270.3 274 268.5C319.7 266.7 365.3 270.3 411.2 271.5C457 272.7 503 271.3 548.8 269.3C594.7 267.3 640.3 264.7 686 266.2C731.7 267.7 777.3 273.3 823 275C868.7 276.7 914.3 274.3 937.2 273.2L960 272L960 301L937.2 301C914.3 301 868.7 301 823 301C777.3 301 731.7 301 686 301C640.3 301 594.7 301 548.8 301C503 301 457 301 411.2 301C365.3 301 319.7 301 274 301C228.3 301 182.7 301 137 301C91.3 301 45.7 301 22.8 301L0 301Z" fill="#212529"></path></svg>