<svg id="visual" viewBox="0 0 960 300" width="960" height="300" xmlns="http://www.w3.org/2000/svg" xmlns:xlink="http://www.w3.org/1999/xlink" version="1.1"><rect x="0" y="0" width="960" height="300" fill="#212529"></rect><path d="M0 102L22.8 104.8C45.7 107.7 91.3 113.3 137 111.7C182.7 110 228.3 101 274 100.3C319.7 99.7 365.3 107.3 411.2 104.5C457 101.7 503 88.3 548.8 83.2C594.7 78 640.3 81 686 83.3C731.7 85.7 777.3 87.3 823 94C868.7 100.7 914.3 112.3 937.2 118.2L960 124L960 0L937.2 0C914.3 0 868.7 0 823 0C777.3 0 731.7 0 686 0C640.3 0 594.7 0 548.8 0C503 0 457 0 411.2 0C365.3 0 319.7 0 274 0C228.3 0 182.7 0 137 0C91.3 0 45.7 0 22.8 0L0 0Z" fill="#e03131"></path><path d="M0 71L22.8 74.3C45.7 77.7 91.3 84.3 137 85.3C182.7 86.3 228.3 81.7 274 78.5C319.7 75.3 365.3 73.7 411.2 77C457 80.3 503 88.7 548.8 87.2C594.7 85.7 640.3 74.3 686 74.7C731.7 75 777.3 87 823 87.5C868.7 88 914.3 77 937.2 71.5L960 66L960 0L937.2 0C914.3 0 868.7 0 823 0C777.3 0 731.7 0 686 0C640.3 0 594.7 0 548.8 0C503 0 457 0 411.2 0C365.3 0 319.7 0 274 0C228.3 0 182.7 0 137 0C91.3 0 45.7 0 22.8 0L0 0Z" fill="#e73f2b"></path><path d="M0 65L22.8 62.8C45.7 60.7 91.3 56.3 137 55C182.7 53.7 228.3 55.3 274 58.2C319.7 61 365.3 65 411.2 66C457 67 503 65 548.8 63.7C594.7 62.3 640.3 61.7 686 64.2C731.7 66.7 777.3 72.3 823 70.3C868.7 68.3 914.3 58.7 937.2 53.8L960 49L960 0L937.2 0C914.3 0 868.7 0 823 0C777.3 0 731.7 0 686 0C640.3 0 594.7 0 548.8 0C503 0 457 0 411.2 0C365.3 0 319.7 0 274 0C228.3 0 182.7 0 137 0C91.3 0 45.7 0 22.8 0L0 0Z" fill="#ed4d23"></path><path d="M0 37L22.8 35.5C45.7 34 91.3 31 137 30.7C182.7 30.3 228.3 32.7 274 37C319.7 41.3 365.3 47.7 411.2 49C457 50.3 503 46.7 548.8 43.2C594.7 39.7 640.3 36.3 686 37.3C731.7 38.3 777.3 43.7 823 43.8C868.7 44 914.3 39 937.2 36.5L960 34L960 0L937.2 0C914.3 0 868.7 0 823 0C777.3 0 731.7 0 686 0C640.3 0 594.7 0 548.8 0C503 0 457 0 411.2 0C365.3 0 319.7 0 274 0C228.3 0 182.7 0 137 0C91.3 0 45.7 0 22.8 0L0 0Z" fill="#f25a19"></path><path d="M0 17L22.8 17.2C45.7 17.3 91.3 17.7 137 19.8C182.7 22 228.3 26 274 26.5C319.7 27 365.3 24 411.2 25C457 26 503 31 548.8 30.5C594.7 30 640.3 24 686 21.8C731.7 19.7 777.3 21.3 823 21C868.7 20.7 914.3 18.3 937.2 17.2L960 16L960 0L937.2 0C914.3 0 868.7 0 823 0C777.3 0 731.7 0 686 0C640.3 0 594.7 0 548.8 0C503 0 457 0 411.2 0C365.3 0 319.7 0 274 0C228.3 0 182.7 0 137 0C91.3 0 45.7 0 22.8 0L0 0Z" fill="#f76707"></path></svg>