<svg id="visual" viewBox="0 0 960 300" width="960" height="300" xmlns="http://www.w3.org/2000/svg" xmlns:xlink="http://www.w3.org/1999/xlink" version="1.1"><rect x="0" y="0" width="960" height="300" fill="#f1f3f5"></rect><path d="M0 142L22.8 142.7C45.7 143.3 91.3 144.7 137 136C182.7 127.3 228.3 108.7 274 108.2C319.7 107.7 365.3 125.3 411.2 129.5C457 133.7 503 124.3 548.8 118.3C594.7 112.3 640.3 109.7 686 109.5C731.7 109.3 777.3 111.7 823 110.7C868.7 109.7 914.3 105.3 937.2 103.2L960 101L960 0L937.2 0C914.3 0 868.7 0 823 0C777.3 0 731.7 0 686 0C640.3 0 594.7 0 548.8 0C503 0 457 0 411.2 0C365.3 0 319.7 0 274 0C228.3 0 182.7 0 137 0C91.3 0 45.7 0 22.8 0L0 0Z" fill="#f1f3f5"></path><path d="M0 85L22.8 84.5C45.7 84 91.3 83 137 81.7C182.7 80.3 228.3 78.7 274 76.8C319.7 75 365.3 73 411.2 79.7C457 86.3 503 101.7 548.8 106.3C594.7 111 640.3 105 686 99.8C731.7 94.7 777.3 90.3 823 90.8C868.7 91.3 914.3 96.7 937.2 99.3L960 102L960 0L937.2 0C914.3 0 868.7 0 823 0C777.3 0 731.7 0 686 0C640.3 0 594.7 0 548.8 0C503 0 457 0 411.2 0C365.3 0 319.7 0 274 0C228.3 0 182.7 0 137 0C91.3 0 45.7 0 22.8 0L0 0Z" fill="#b7babd"></path><path d="M0 82L22.8 77.5C45.7 73 91.3 64 137 61C182.7 58 228.3 61 274 63.8C319.7 66.7 365.3 69.3 411.2 71.3C457 73.3 503 74.7 548.8 78.7C594.7 82.7 640.3 89.3 686 86.7C731.7 84 777.3 72 823 69.7C868.7 67.3 914.3 74.7 937.2 78.3L960 82L960 0L937.2 0C914.3 0 868.7 0 823 0C777.3 0 731.7 0 686 0C640.3 0 594.7 0 548.8 0C503 0 457 0 411.2 0C365.3 0 319.7 0 274 0C228.3 0 182.7 0 137 0C91.3 0 45.7 0 22.8 0L0 0Z" fill="#818488"></path><path d="M0 51L22.8 49.7C45.7 48.3 91.3 45.7 137 47.3C182.7 49 228.3 55 274 55.2C319.7 55.3 365.3 49.7 411.2 49.7C457 49.7 503 55.3 548.8 55C594.7 54.7 640.3 48.3 686 49.8C731.7 51.3 777.3 60.7 823 62.7C868.7 64.7 914.3 59.3 937.2 56.7L960 54L960 0L937.2 0C914.3 0 868.7 0 823 0C777.3 0 731.7 0 686 0C640.3 0 594.7 0 548.8 0C503 0 457 0 411.2 0C365.3 0 319.7 0 274 0C228.3 0 182.7 0 137 0C91.3 0 45.7 0 22.8 0L0 0Z" fill="#4f5256"></path><path d="M0 40L22.8 36.8C45.7 33.7 91.3 27.3 137 25.8C182.7 24.3 228.3 27.7 274 30.8C319.7 34 365.3 37 411.2 35.3C457 33.7 503 27.3 548.8 24.3C594.7 21.3 640.3 21.7 686 25C731.7 28.3 777.3 34.7 823 34.5C868.7 34.3 914.3 27.7 937.2 24.3L960 21L960 0L937.2 0C914.3 0 868.7 0 823 0C777.3 0 731.7 0 686 0C640.3 0 594.7 0 548.8 0C503 0 457 0 411.2 0C365.3 0 319.7 0 274 0C228.3 0 182.7 0 137 0C91.3 0 45.7 0 22.8 0L0 0Z" fill="#212529"></path></svg>