<svg id="visual" viewBox="0 0 960 300" width="960" height="300" xmlns="http://www.w3.org/2000/svg" xmlns:xlink="http://www.w3.org/1999/xlink" version="1.1"><rect x="0" y="0" width="960" height="300" fill="#f1f3f5"></rect><path d="M0 133L22.8 132.2C45.7 131.3 91.3 129.7 137 139.5C182.7 149.3 228.3 170.7 274 171.2C319.7 171.7 365.3 151.3 411.2 146.7C457 142 503 153 548.8 160C594.7 167 640.3 170 686 170.2C731.7 170.3 777.3 167.7 823 168.8C868.7 170 914.3 175 937.2 177.5L960 180L960 301L937.2 301C914.3 301 868.7 301 823 301C777.3 301 731.7 301 686 301C640.3 301 594.7 301 548.8 301C503 301 457 301 411.2 301C365.3 301 319.7 301 274 301C228.3 301 182.7 301 137 301C91.3 301 45.7 301 22.8 301L0 301Z" fill="#f1f3f5"></path><path d="M0 198L22.8 198.8C45.7 199.7 91.3 201.3 137 203C182.7 204.7 228.3 206.3 274 208.3C319.7 210.3 365.3 212.7 411.2 204.8C457 197 503 179 548.8 173.5C594.7 168 640.3 175 686 181.2C731.7 187.3 777.3 192.7 823 192.2C868.7 191.7 914.3 185.3 937.2 182.2L960 179L960 301L937.2 301C914.3 301 868.7 301 823 301C777.3 301 731.7 301 686 301C640.3 301 594.7 301 548.8 301C503 301 457 301 411.2 301C365.3 301 319.7 301 274 301C228.3 301 182.7 301 137 301C91.3 301 45.7 301 22.8 301L0 301Z" fill="#b7babd"></path><path d="M0 203L22.8 208.2C45.7 213.3 91.3 223.7 137 227C182.7 230.3 228.3 226.7 274 223.2C319.7 219.7 365.3 216.3 411.2 214.2C457 212 503 211 548.8 206.5C594.7 202 640.3 194 686 197C731.7 200 777.3 214 823 216.7C868.7 219.3 914.3 210.7 937.2 206.3L960 202L960 301L937.2 301C914.3 301 868.7 301 823 301C777.3 301 731.7 301 686 301C640.3 301 594.7 301 548.8 301C503 301 457 301 411.2 301C365.3 301 319.7 301 274 301C228.3 301 182.7 301 137 301C91.3 301 45.7 301 22.8 301L0 301Z" fill="#818488"></path><path d="M0 238L22.8 239.7C45.7 241.3 91.3 244.7 137 242.8C182.7 241 228.3 234 274 233.8C319.7 233.7 365.3 240.3 411.2 240.2C457 240 503 233 548.8 233.2C594.7 233.3 640.3 240.7 686 239C731.7 237.3 777.3 226.7 823 224.5C868.7 222.3 914.3 228.7 937.2 231.8L960 235L960 301L937.2 301C914.3 301 868.7 301 823 301C777.3 301 731.7 301 686 301C640.3 301 594.7 301 548.8 301C503 301 457 301 411.2 301C365.3 301 319.7 301 274 301C228.3 301 182.7 301 137 301C91.3 301 45.7 301 22.8 301L0 301Z" fill="#4f5256"></path><path d="M0 251L22.8 254.7C45.7 258.3 91.3 265.7 137 267.5C182.7 269.3 228.3 265.7 274 262C319.7 258.3 365.3 254.7 411.2 256.5C457 258.3 503 265.7 548.8 269.2C594.7 272.7 640.3 272.3 686 268.5C731.7 264.7 777.3 257.3 823 257.7C868.7 258 914.3 266 937.2 270L960 274L960 301L937.2 301C914.3 301 868.7 301 823 301C777.3 301 731.7 301 686 301C640.3 301 594.7 301 548.8 301C503 301 457 301 411.2 301C365.3 301 319.7 301 274 301C228.3 301 182.7 301 137 301C91.3 301 45.7 301 22.8 301L0 301Z" fill="#212529"></path></svg>