<svg id="visual" viewBox="0 0 960 300" width="960" height="300" xmlns="http://www.w3.org/2000/svg" xmlns:xlink="http://www.w3.org/1999/xlink" version="1.1"><rect x="0" y="0" width="960" height="300" fill="#f1f3f5"></rect><path d="M0 97L22.8 101.2C45.7 105.3 91.3 113.7 137 111.7C182.7 109.7 228.3 97.3 274 95.5C319.7 93.7 365.3 102.3 411.2 102.2C457 102 503 93 548.8 92C594.7 91 640.3 98 686 97.3C731.7 96.7 777.3 88.3 823 85.2C868.7 82 914.3 84 937.2 85L960 86L960 0L937.2 0C914.3 0 868.7 0 823 0C777.3 0 731.7 0 686 0C640.3 0 594.7 0 548.8 0C503 0 457 0 411.2 0C365.3 0 319.7 0 274 0C228.3 0 182.7 0 137 0C91.3 0 45.7 0 22.8 0L0 0Z" fill="#f1f3f5"></path><path d="M0 77L22.8 76.3C45.7 75.7 91.3 74.3 137 77.2C182.7 80 228.3 87 274 89C319.7 91 365.3 88 411.2 83.5C457 79 503 73 548.8 75.8C594.7 78.7 640.3 90.3 686 92.7C731.7 95 777.3 88 823 86.8C868.7 85.7 914.3 90.3 937.2 92.7L960 95L960 0L937.2 0C914.3 0 868.7 0 823 0C777.3 0 731.7 0 686 0C640.3 0 594.7 0 548.8 0C503 0 457 0 411.2 0C365.3 0 319.7 0 274 0C228.3 0 182.7 0 137 0C91.3 0 45.7 0 22.8 0L0 0Z" fill="#b7babd"></path><path d="M0 48L22.8 53C45.7 58 91.3 68 137 69.2C182.7 70.3 228.3 62.7 274 60.7C319.7 58.7 365.3 62.3 411.2 61.2C457 60 503 54 548.8 52.7C594.7 51.3 640.3 54.7 686 58.3C731.7 62 777.3 66 823 63.5C868.7 61 914.3 52 937.2 47.5L960 43L960 0L937.2 0C914.3 0 868.7 0 823 0C777.3 0 731.7 0 686 0C640.3 0 594.7 0 548.8 0C503 0 457 0 411.2 0C365.3 0 319.7 0 274 0C228.3 0 182.7 0 137 0C91.3 0 45.7 0 22.8 0L0 0Z" fill="#818488"></path><path d="M0 47L22.8 48C45.7 49 91.3 51 137 49.3C182.7 47.7 228.3 42.3 274 40.2C319.7 38 365.3 39 411.2 42.3C457 45.7 503 51.3 548.8 52.3C594.7 53.3 640.3 49.7 686 48.2C731.7 46.7 777.3 47.3 823 49C868.7 50.7 914.3 53.3 937.2 54.7L960 56L960 0L937.2 0C914.3 0 868.7 0 823 0C777.3 0 731.7 0 686 0C640.3 0 594.7 0 548.8 0C503 0 457 0 411.2 0C365.3 0 319.7 0 274 0C228.3 0 182.7 0 137 0C91.3 0 45.7 0 22.8 0L0 0Z" fill="#4f5256"></path><path d="M0 20L22.8 18.8C45.7 17.7 91.3 15.3 137 17.8C182.7 20.3 228.3 27.7 274 29.5C319.7 31.3 365.3 27.7 411.2 26.5C457 25.3 503 26.7 548.8 28.7C594.7 30.7 640.3 33.3 686 31.8C731.7 30.3 777.3 24.7 823 23C868.7 21.3 914.3 23.7 937.2 24.8L960 26L960 0L937.2 0C914.3 0 868.7 0 823 0C777.3 0 731.7 0 686 0C640.3 0 594.7 0 548.8 0C503 0 457 0 411.2 0C365.3 0 319.7 0 274 0C228.3 0 182.7 0 137 0C91.3 0 45.7 0 22.8 0L0 0Z" fill="#212529"></path></svg>