<svg id="visual" viewBox="0 0 960 300" width="960" height="300" xmlns="http://www.w3.org/2000/svg" xmlns:xlink="http://www.w3.org/1999/xlink" version="1.1"><rect x="0" y="0" width="960" height="300" fill="#f1f3f5"></rect><path d="M0 214L22.8 208.5C45.7 203 91.3 192 137 190C182.7 188 228.3 195 274 197C319.7 199 365.3 196 411.2 193.5C457 191 503 189 548.8 190.5C594.7 192 640.3 197 686 201.8C731.7 206.7 777.3 211.3 823 213.3C868.7 215.3 914.3 214.7 937.2 214.3L960 214L960 301L937.2 301C914.3 301 868.7 301 823 301C777.3 301 731.7 301 686 301C640.3 301 594.7 301 548.8 301C503 301 457 301 411.2 301C365.3 301 319.7 301 274 301C228.3 301 182.7 301 137 301C91.3 301 45.7 301 22.8 301L0 301Z" fill="#f1f3f5"></path><path d="M0 208L22.8 210.3C45.7 212.7 91.3 217.3 137 218.7C182.7 220 228.3 218 274 219.2C319.7 220.3 365.3 224.7 411.2 221.8C457 219 503 209 548.8 208.2C594.7 207.3 640.3 215.7 686 218.7C731.7 221.7 777.3 219.3 823 219C868.7 218.7 914.3 220.3 937.2 221.2L960 222L960 301L937.2 301C914.3 301 868.7 301 823 301C777.3 301 731.7 301 686 301C640.3 301 594.7 301 548.8 301C503 301 457 301 411.2 301C365.3 301 319.7 301 274 301C228.3 301 182.7 301 137 301C91.3 301 45.7 301 22.8 301L0 301Z" fill="#b7babd"></path><path d="M0 246L22.8 242.3C45.7 238.7 91.3 231.3 137 231.2C182.7 231 228.3 238 274 237C319.7 236 365.3 227 411.2 228C457 229 503 240 548.8 245.3C594.7 250.7 640.3 250.3 686 250.3C731.7 250.3 777.3 250.7 823 245.5C868.7 240.3 914.3 229.7 937.2 224.3L960 219L960 301L937.2 301C914.3 301 868.7 301 823 301C777.3 301 731.7 301 686 301C640.3 301 594.7 301 548.8 301C503 301 457 301 411.2 301C365.3 301 319.7 301 274 301C228.3 301 182.7 301 137 301C91.3 301 45.7 301 22.8 301L0 301Z" fill="#818488"></path><path d="M0 266L22.8 263C45.7 260 91.3 254 137 254.7C182.7 255.3 228.3 262.7 274 266.2C319.7 269.7 365.3 269.3 411.2 268C457 266.7 503 264.3 548.8 259.8C594.7 255.3 640.3 248.7 686 248.8C731.7 249 777.3 256 823 257C868.7 258 914.3 253 937.2 250.5L960 248L960 301L937.2 301C914.3 301 868.7 301 823 301C777.3 301 731.7 301 686 301C640.3 301 594.7 301 548.8 301C503 301 457 301 411.2 301C365.3 301 319.7 301 274 301C228.3 301 182.7 301 137 301C91.3 301 45.7 301 22.8 301L0 301Z" fill="#4f5256"></path><path d="M0 264L22.8 266.7C45.7 269.3 91.3 274.7 137 275.3C182.7 276 228.3 272 274 272.2C319.7 272.3 365.3 276.7 411.2 277.3C457 278 503 275 548.8 275.2C594.7 275.3 640.3 278.7 686 277.7C731.7 276.7 777.3 271.3 823 268.7C868.7 266 914.3 266 937.2 266L960 266L960 301L937.2 301C914.3 301 868.7 301 823 301C777.3 301 731.7 301 686 301C640.3 301 594.7 301 548.8 301C503 301 457 301 411.2 301C365.3 301 319.7 301 274 301C228.3 301 182.7 301 137 301C91.3 301 45.7 301 22.8 301L0 301Z" fill="#212529"></path></svg>