<svg id="visual" viewBox="0 0 900 300" width="900" height="300" xmlns="http://www.w3.org/2000/svg" xmlns:xlink="http://www.w3.org/1999/xlink" version="1.1"><rect x="0" y="0" width="900" height="300" fill="#f1f3f5"></rect><path d="M0 126L21.5 128.3C43 130.7 86 135.3 128.8 134.3C171.7 133.3 214.3 126.7 257.2 125.2C300 123.7 343 127.3 385.8 130.2C428.7 133 471.3 135 514.2 139.7C557 144.3 600 151.7 642.8 153.5C685.7 155.3 728.3 151.7 771.2 149.8C814 148 857 148 878.5 148L900 148L900 301L878.5 301C857 301 814 301 771.2 301C728.3 301 685.7 301 642.8 301C600 301 557 301 514.2 301C471.3 301 428.7 301 385.8 301C343 301 300 301 257.2 301C214.3 301 171.7 301 128.8 301C86 301 43 301 21.5 301L0 301Z" fill="#f1f3f5"></path><path d="M0 136L21.5 140.3C43 144.7 86 153.3 128.8 150.7C171.7 148 214.3 134 257.2 130.5C300 127 343 134 385.8 144.7C428.7 155.3 471.3 169.7 514.2 172.7C557 175.7 600 167.3 642.8 156.8C685.7 146.3 728.3 133.7 771.2 135.3C814 137 857 153 878.5 161L900 169L900 301L878.5 301C857 301 814 301 771.2 301C728.3 301 685.7 301 642.8 301C600 301 557 301 514.2 301C471.3 301 428.7 301 385.8 301C343 301 300 301 257.2 301C214.3 301 171.7 301 128.8 301C86 301 43 301 21.5 301L0 301Z" fill="#d0d2d5"></path><path d="M0 192L21.5 191.2C43 190.3 86 188.7 128.8 182.5C171.7 176.3 214.3 165.7 257.2 167.2C300 168.7 343 182.3 385.8 186.2C428.7 190 471.3 184 514.2 175.3C557 166.7 600 155.3 642.8 156.5C685.7 157.7 728.3 171.3 771.2 179.3C814 187.3 857 189.7 878.5 190.8L900 192L900 301L878.5 301C857 301 814 301 771.2 301C728.3 301 685.7 301 642.8 301C600 301 557 301 514.2 301C471.3 301 428.7 301 385.8 301C343 301 300 301 257.2 301C214.3 301 171.7 301 128.8 301C86 301 43 301 21.5 301L0 301Z" fill="#afb2b5"></path><path d="M0 192L21.5 189.5C43 187 86 182 128.8 177.8C171.7 173.7 214.3 170.3 257.2 174.7C300 179 343 191 385.8 198.5C428.7 206 471.3 209 514.2 205.8C557 202.7 600 193.3 642.8 194.3C685.7 195.3 728.3 206.7 771.2 211C814 215.3 857 212.7 878.5 211.3L900 210L900 301L878.5 301C857 301 814 301 771.2 301C728.3 301 685.7 301 642.8 301C600 301 557 301 514.2 301C471.3 301 428.7 301 385.8 301C343 301 300 301 257.2 301C214.3 301 171.7 301 128.8 301C86 301 43 301 21.5 301L0 301Z" fill="#909397"></path><path d="M0 227L21.5 223.5C43 220 86 213 128.8 208.7C171.7 204.3 214.3 202.7 257.2 201.8C300 201 343 201 385.8 202.8C428.7 204.7 471.3 208.3 514.2 209.8C557 211.3 600 210.7 642.8 213C685.7 215.3 728.3 220.7 771.2 219C814 217.3 857 208.7 878.5 204.3L900 200L900 301L878.5 301C857 301 814 301 771.2 301C728.3 301 685.7 301 642.8 301C600 301 557 301 514.2 301C471.3 301 428.7 301 385.8 301C343 301 300 301 257.2 301C214.3 301 171.7 301 128.8 301C86 301 43 301 21.5 301L0 301Z" fill="#727579"></path><path d="M0 226L21.5 225.8C43 225.7 86 225.3 128.8 226C171.7 226.7 214.3 228.3 257.2 229.5C300 230.7 343 231.3 385.8 233.2C428.7 235 471.3 238 514.2 239.5C557 241 600 241 642.8 242.2C685.7 243.3 728.3 245.7 771.2 247.3C814 249 857 250 878.5 250.5L900 251L900 301L878.5 301C857 301 814 301 771.2 301C728.3 301 685.7 301 642.8 301C600 301 557 301 514.2 301C471.3 301 428.7 301 385.8 301C343 301 300 301 257.2 301C214.3 301 171.7 301 128.8 301C86 301 43 301 21.5 301L0 301Z" fill="#55595d"></path><path d="M0 243L21.5 245.2C43 247.3 86 251.7 128.8 253.8C171.7 256 214.3 256 257.2 257.5C300 259 343 262 385.8 258.8C428.7 255.7 471.3 246.3 514.2 246.3C557 246.3 600 255.7 642.8 259C685.7 262.3 728.3 259.7 771.2 259.3C814 259 857 261 878.5 262L900 263L900 301L878.5 301C857 301 814 301 771.2 301C728.3 301 685.7 301 642.8 301C600 301 557 301 514.2 301C471.3 301 428.7 301 385.8 301C343 301 300 301 257.2 301C214.3 301 171.7 301 128.8 301C86 301 43 301 21.5 301L0 301Z" fill="#3a3e42"></path><path d="M0 268L21.5 268.3C43 268.7 86 269.3 128.8 269.3C171.7 269.3 214.3 268.7 257.2 269.2C300 269.7 343 271.3 385.8 274C428.7 276.7 471.3 280.3 514.2 280.7C557 281 600 278 642.8 275.2C685.7 272.3 728.3 269.7 771.2 267.5C814 265.3 857 263.7 878.5 262.8L900 262L900 301L878.5 301C857 301 814 301 771.2 301C728.3 301 685.7 301 642.8 301C600 301 557 301 514.2 301C471.3 301 428.7 301 385.8 301C343 301 300 301 257.2 301C214.3 301 171.7 301 128.8 301C86 301 43 301 21.5 301L0 301Z" fill="#212529"></path></svg>